<svg id="Group_725" data-name="Group 725" xmlns="http://www.w3.org/2000/svg" width="42.14" height="42.14" viewBox="0 0 42.14 42.14">
  <g id="Group_724" data-name="Group 724" transform="translate(0)">
    <path id="Path_253" data-name="Path 253" d="M37.6,2.645H34.206V1.235a1.235,1.235,0,0,0-2.469,0v1.41H26.272V1.235a1.235,1.235,0,1,0-2.469,0v1.41H18.337V1.235a1.235,1.235,0,1,0-2.469,0v1.41H10.4V1.235a1.235,1.235,0,1,0-2.469,0v1.41H4.54A4.546,4.546,0,0,0,0,7.185V37.6a4.546,4.546,0,0,0,4.54,4.54H37.6A4.546,4.546,0,0,0,42.14,37.6V7.185A4.546,4.546,0,0,0,37.6,2.645ZM4.54,5.114H7.934v1.41a1.235,1.235,0,0,0,2.469,0V5.114h5.465v1.41a1.235,1.235,0,1,0,2.469,0V5.114H23.8v1.41a1.235,1.235,0,1,0,2.469,0V5.114h5.465v1.41a1.235,1.235,0,0,0,2.469,0V5.114H37.6a2.074,2.074,0,0,1,2.072,2.071v3.394H2.469V7.185A2.074,2.074,0,0,1,4.54,5.114ZM37.6,39.671H4.54A2.074,2.074,0,0,1,2.469,37.6V13.048h37.2V37.6A2.074,2.074,0,0,1,37.6,39.671Z" transform="translate(0)" fill="#eef8d8"/>
    <path id="Path_254" data-name="Path 254" d="M78.823,208.867H73.534A1.235,1.235,0,0,0,72.3,210.1v5.289a1.235,1.235,0,0,0,1.235,1.235h5.29a1.235,1.235,0,0,0,1.235-1.235V210.1A1.235,1.235,0,0,0,78.823,208.867Zm-1.235,5.289h-2.82v-2.82h2.82Z" transform="translate(-66.348 -191.676)" fill="#eef8d8"/>
    <path id="Path_255" data-name="Path 255" d="M351.957,208.867h-5.289a1.235,1.235,0,0,0-1.235,1.235v5.289a1.235,1.235,0,0,0,1.235,1.235h5.289a1.235,1.235,0,0,0,1.234-1.235V210.1A1.235,1.235,0,0,0,351.957,208.867Zm-1.235,5.289H347.9v-2.82h2.82Z" transform="translate(-317.002 -191.676)" fill="#eef8d8"/>
    <path id="Path_256" data-name="Path 256" d="M78.823,337.4H73.534a1.235,1.235,0,0,0-1.235,1.235v5.289a1.235,1.235,0,0,0,1.235,1.235h5.29a1.235,1.235,0,0,0,1.235-1.235v-5.289A1.235,1.235,0,0,0,78.823,337.4Zm-1.235,5.289h-2.82v-2.82h2.82Z" transform="translate(-66.348 -309.631)" fill="#eef8d8"/>
    <path id="Path_257" data-name="Path 257" d="M351.957,337.4h-5.289a1.235,1.235,0,0,0-1.235,1.235v5.289a1.235,1.235,0,0,0,1.235,1.235h5.289a1.235,1.235,0,0,0,1.234-1.235v-5.289A1.235,1.235,0,0,0,351.957,337.4Zm-1.235,5.289H347.9v-2.82h2.82Z" transform="translate(-317.002 -309.631)" fill="#eef8d8"/>
    <path id="Path_258" data-name="Path 258" d="M215.389,337.4H210.1a1.235,1.235,0,0,0-1.235,1.235v5.289a1.235,1.235,0,0,0,1.235,1.235h5.29a1.235,1.235,0,0,0,1.235-1.235v-5.289A1.235,1.235,0,0,0,215.389,337.4Zm-1.235,5.289h-2.82v-2.82h2.82Z" transform="translate(-191.674 -309.631)" fill="#eef8d8"/>
    <path id="Path_259" data-name="Path 259" d="M212.89,218.641l-2.867,2.867-1-1a1.235,1.235,0,0,0-1.746,1.746l1.87,1.87a1.234,1.234,0,0,0,1.746,0l3.74-3.74a1.235,1.235,0,1,0-1.746-1.746Z" transform="translate(-189.888 -200.314)" fill="#eef8d8"/>
  </g>
</svg>
