<svg xmlns="http://www.w3.org/2000/svg" width="48" height="48" viewBox="0 0 48 48">
  <g id="Group_749" data-name="Group 749" transform="translate(21061 15906)">
    <rect id="Rectangle_135" data-name="Rectangle 135" width="48" height="48" rx="24" transform="translate(-21061 -15906)" fill="#fff"/>
    <g id="Group_748" data-name="Group 748" transform="translate(-21057.139 -15892.494)">
      <path id="Path_291" data-name="Path 291" d="M38.063,145.273a1.6,1.6,0,0,1-1.784-1.3v-7.484H34.487v7.484c0,3.25,2.415,3.092,2.415,3.092h9.9v-1.792Z" transform="translate(-34.486 -128.284)" fill="#221f20"/>
      <path id="Path_292" data-name="Path 292" d="M105.687,137.665a1.658,1.658,0,0,0-1.256-.84c-.935.009-1.671,1.608-1.671,1.608l-4.488,8.9H110.53Zm-1.6,1.6s.3-.779.683,0,3.181,6.309,3.181,6.309h-7.1Z" transform="translate(-84.551 -128.55)" fill="#221f20"/>
      <path id="Path_293" data-name="Path 293" d="M174.35,143.584a1.921,1.921,0,0,0-1.116-1.461c1.162-.31,1.116-1.714,1.116-1.714l-.012-1.518c-.046-2.116-2.686-2.067-2.686-2.067h-9.44V138.5h9.44a1.2,1.2,0,0,1,1.041,1.15v.541a1.126,1.126,0,0,1-1.041,1.047h-9.44v1.677h9.44a1.144,1.144,0,0,1,1.03,1.187v.552a1.185,1.185,0,0,1-1.03,1h-9.44v1.677h9.44c2.847-.133,2.7-2.261,2.7-2.261s.023-.828,0-1.484" transform="translate(-134.735 -128.551)" fill="#221f20"/>
      <path id="Path_294" data-name="Path 294" d="M63.094,101.341l-.705.189v.862h-.562v.563h.562V104.9a1.354,1.354,0,0,0,.262.964.94.94,0,0,0,.735.288,1.646,1.646,0,0,0,.6-.092l.02-.008-.034-.554-.036.01a1.43,1.43,0,0,1-.374.044c-.325,0-.464-.2-.464-.674v-1.925h.944v-.563h-.944Z" transform="translate(-55.947 -100.702)"/>
      <path id="Path_295" data-name="Path 295" d="M77.12,99.966a1.387,1.387,0,0,0-.689.191,1.274,1.274,0,0,0-.442.407V98.355h-.72v5.38h.72v-2.218a.772.772,0,0,1,.043-.3.914.914,0,0,1,.855-.639c.7,0,.809.657.809,1.049v2.113h.72v-2.188c0-1.505-1.08-1.581-1.3-1.581" transform="translate(-66.497 -98.356)"/>
      <path id="Path_296" data-name="Path 296" d="M95.108,105.841a1.79,1.79,0,0,0-1.731,1.986,1.721,1.721,0,0,0,1.814,1.859,2.958,2.958,0,0,0,1.219-.227l.023-.01-.127-.532-.033.014a2.335,2.335,0,0,1-.992.185,1.13,1.13,0,0,1-1.212-1.2h2.543l.007-.057a2.307,2.307,0,0,0,.019-.281,2.124,2.124,0,0,0-.31-1.121,1.368,1.368,0,0,0-1.219-.618m-1.029,1.543a1.06,1.06,0,0,1,.977-1.01.815.815,0,0,1,.607.23,1.164,1.164,0,0,1,.277.78Z" transform="translate(-80.704 -104.233)"/>
      <path id="Path_297" data-name="Path 297" d="M121.145,105.841a1.364,1.364,0,0,0-1.188.632l-.035-.549h-.646l0,.033c.021.28.03.573.03.979v2.675h.72V107.4a.92.92,0,0,1,.044-.3.9.9,0,0,1,.855-.653c.669,0,.809.566.809,1.041v2.121h.72v-2.2c0-1.5-1.093-1.574-1.312-1.574" transform="translate(-101.035 -104.233)"/>
      <path id="Path_298" data-name="Path 298" d="M140.325,108.712v-1.356c0-.691-.244-1.514-1.409-1.514a2.269,2.269,0,0,0-1.208.327l-.02.013.17.494.033-.021a1.773,1.773,0,0,1,.928-.265.71.71,0,0,1,.793.809v.044h0a2.613,2.613,0,0,0-1.844.539,1.141,1.141,0,0,0-.335.841,1.059,1.059,0,0,0,1.139,1.072,1.386,1.386,0,0,0,1.107-.516l.05.434h.663l-.006-.036a4.966,4.966,0,0,1-.059-.864m-1.581.434a.553.553,0,0,1-.591-.6.628.628,0,0,1,.185-.467,1.751,1.751,0,0,1,1.214-.32h.076v.6a.652.652,0,0,1-.036.2.875.875,0,0,1-.848.587" transform="translate(-115.285 -104.234)"/>
      <path id="Path_299" data-name="Path 299" d="M155.6,99.574a.433.433,0,0,0-.443.443.422.422,0,0,0,.427.435.461.461,0,0,0,.337-.132.41.41,0,0,0,.113-.3.42.42,0,0,0-.435-.443" transform="translate(-129.198 -99.313)"/>
      <path id="Path_300" data-name="Path 300" d="M153.579,106.951H154v2.961h.72v-3.687h-1.143Z" transform="translate(-127.957 -104.533)"/>
      <path id="Path_301" data-name="Path 301" d="M164.937,104.269h-.008a.514.514,0,0,1-.382-.134.581.581,0,0,1-.136-.439V99.8h-.72v4.022a1.037,1.037,0,0,0,.4.867,1.285,1.285,0,0,0,.685.182h.191v-.6Z" transform="translate(-135.894 -99.489)"/>
    </g>
  </g>
</svg>
