<svg xmlns="http://www.w3.org/2000/svg" width="48.657" height="34.737" viewBox="0 0 48.657 34.737">
  <g id="Group_738" data-name="Group 738" transform="translate(0.25 0.25)">
    <g id="Group_727" data-name="Group 727" transform="translate(0 0)">
      <g id="Group_726" data-name="Group 726" transform="translate(0 0)">
        <path id="Path_260" data-name="Path 260" d="M43.455,74H4.7A4.708,4.708,0,0,0,0,78.7v24.831a4.708,4.708,0,0,0,4.7,4.7H19.282a.941.941,0,0,0,0-1.881H4.7a2.825,2.825,0,0,1-2.822-2.822V92.059H22.324A2.856,2.856,0,0,0,23.6,93.922a2.888,2.888,0,0,0,.693.319L22.64,97.09A.941.941,0,0,0,23.7,98.471l2.252-.6.6,2.253a.941.941,0,0,0,1.723.227l4.288-7.428,5.372,9.552a.941.941,0,0,0,1.728-.218l.6-2.253,2.252.6a.941.941,0,0,0,1.062-1.373l-2.766-4.874c.087.008.175.013.263.013a2.878,2.878,0,0,0,2.815-2.312h2.383v11.475a2.825,2.825,0,0,1-2.822,2.822H34.049v-5.079a.941.941,0,0,0-1.881,0v5.079H27.28a.941.941,0,1,0,0,1.881H43.455a4.708,4.708,0,0,0,4.7-4.7V78.7A4.708,4.708,0,0,0,43.455,74ZM24.61,92.334a.973.973,0,0,1-.46-.837v-6.59h0a.991.991,0,0,1,1.414-.9l4.615,2.177a2.859,2.859,0,0,0-.176.991V89.19a2.855,2.855,0,0,0,.188,1.02l-4.626,2.183A.974.974,0,0,1,24.61,92.334Zm3.172,5.1-.259-.967a.941.941,0,0,0-1.152-.665l-.958.257,1.217-2.093,4.335-2.045ZM26.366,82.309a2.872,2.872,0,0,0-4.1,2.6v5.271H1.881V78.7A2.825,2.825,0,0,1,4.7,75.881H32.168v8.058a.935.935,0,0,0,.105.431,2.855,2.855,0,0,0-.844.328Zm6.991,7.872h-.483a.992.992,0,0,1-.991-.991V87.178a.992.992,0,0,1,.991-.991h.483a.992.992,0,0,1,.991.991V89.19A.992.992,0,0,1,33.357,90.181ZM40.836,98.2l-.99-.266a.941.941,0,0,0-1.152.665l-.249.932-4.27-7.593a2.853,2.853,0,0,0,.589-.25l3.248,1.532Zm.771-5.871a.973.973,0,0,1-.953.059l-4.614-2.177a2.857,2.857,0,0,0,.19-1.026V87.178a2.859,2.859,0,0,0-.178-1l4.6-2.172a.991.991,0,0,1,1.414.9V91.5h0A.974.974,0,0,1,41.607,92.334Zm4.67-2.156H43.948V84.907a2.872,2.872,0,0,0-4.1-2.6L34.8,84.694a2.853,2.853,0,0,0-.85-.327.936.936,0,0,0,.1-.428V75.881h9.406A2.825,2.825,0,0,1,46.276,78.7V90.178Z" transform="translate(0 -74)" fill="#eef8d8" stroke="#eef8d8" stroke-width="0.5"/>
      </g>
    </g>
    <g id="Group_729" data-name="Group 729" transform="translate(22.268 32.356)">
      <g id="Group_728" data-name="Group 728" transform="translate(0 0)">
        <path id="Path_261" data-name="Path 261" d="M238.356,418.276a.94.94,0,1,0,.276.665A.948.948,0,0,0,238.356,418.276Z" transform="translate(-236.75 -418)" fill="#eef8d8" stroke="#eef8d8" stroke-width="0.5"/>
      </g>
    </g>
    <g id="Group_731" data-name="Group 731" transform="translate(5.079 5.079)">
      <g id="Group_730" data-name="Group 730">
        <path id="Path_262" data-name="Path 262" d="M68.814,128H54.941a.941.941,0,0,0,0,1.881H68.814a.941.941,0,0,0,0-1.881Z" transform="translate(-54 -128)" fill="#eef8d8" stroke="#eef8d8" stroke-width="0.5"/>
      </g>
    </g>
    <g id="Group_733" data-name="Group 733" transform="translate(5.079 26.336)">
      <g id="Group_732" data-name="Group 732">
        <path id="Path_263" data-name="Path 263" d="M68.814,354H54.941a.941.941,0,0,0,0,1.881H68.814a.941.941,0,1,0,0-1.881Z" transform="translate(-54 -354)" fill="#eef8d8" stroke="#eef8d8" stroke-width="0.5"/>
      </g>
    </g>
    <g id="Group_735" data-name="Group 735" transform="translate(5.079 10.158)">
      <g id="Group_734" data-name="Group 734">
        <path id="Path_264" data-name="Path 264" d="M60.772,182H54.941a.941.941,0,0,0,0,1.881h5.832a.941.941,0,1,0,0-1.881Z" transform="translate(-54 -182)" fill="#eef8d8" stroke="#eef8d8" stroke-width="0.5"/>
      </g>
    </g>
    <g id="Group_737" data-name="Group 737" transform="translate(14.55 10.158)">
      <g id="Group_736" data-name="Group 736">
        <path id="Path_265" data-name="Path 265" d="M156.3,182.276a.94.94,0,1,0,.276.665A.948.948,0,0,0,156.3,182.276Z" transform="translate(-154.69 -182)" fill="#eef8d8" stroke="#eef8d8" stroke-width="0.5"/>
      </g>
    </g>
  </g>
</svg>
