<svg xmlns="http://www.w3.org/2000/svg" width="163.094" height="56" viewBox="0 0 163.094 56">
  <g id="Group_745" data-name="Group 745" transform="translate(-1235 -3693)">
    <text id="_900_" data-name="900+" transform="translate(1288.094 3738)" fill="#0d4e19" font-size="47" font-family="FuturaBT-Heavy, Futura" font-weight="800"><tspan x="0" y="0">900</tspan><tspan y="0" font-size="27.415" baseline-shift="15.665100055801178">+</tspan></text>
    <g id="Group_585" data-name="Group 585" transform="translate(1235 3699.296)">
      <path id="Path_238" data-name="Path 238" d="M247.791,380.9a.9.9,0,1,1-.9-.9A.9.9,0,0,1,247.791,380.9Zm0,0" transform="translate(-223.974 -345.975)" fill="#00831b"/>
      <path id="Path_239" data-name="Path 239" d="M369.745,245.372a5.372,5.372,0,1,0-5.372,5.372A5.378,5.378,0,0,0,369.745,245.372Zm-5.372,3.582a3.582,3.582,0,1,1,3.582-3.582A3.586,3.586,0,0,1,364.372,248.954Zm0,0" transform="translate(-326.856 -218.511)" fill="#00831b"/>
      <path id="Path_240" data-name="Path 240" d="M37.517,341.791a8.749,8.749,0,0,0-6.039,2.455,10.743,10.743,0,0,0-17.111,0,8.751,8.751,0,0,0-6.039-2.455A8.306,8.306,0,0,0,0,349.849v1.791a.9.9,0,0,0,.9.9H44.948a.9.9,0,0,0,.9-.9v-1.791A8.306,8.306,0,0,0,37.517,341.791ZM1.791,349.849a6.492,6.492,0,0,1,6.536-6.268,6.835,6.835,0,0,1,5.052,2.224,10.745,10.745,0,0,0-1.2,4.939H1.791Zm21.131-8.058a8.952,8.952,0,0,1,8.954,8.954H13.968A8.962,8.962,0,0,1,22.922,341.791Zm21.131,8.954H33.667a10.745,10.745,0,0,0-1.2-4.939,6.835,6.835,0,0,1,5.052-2.224,6.492,6.492,0,0,1,6.536,6.268Zm0,0" transform="translate(0 -309.557)" fill="#00831b"/>
      <path id="Path_241" data-name="Path 241" d="M43.745,245.372a5.372,5.372,0,1,0-5.372,5.372A5.378,5.378,0,0,0,43.745,245.372Zm-5.372,3.582a3.582,3.582,0,1,1,3.582-3.582A3.586,3.586,0,0,1,38.372,248.954Zm0,0" transform="translate(-30.045 -218.511)" fill="#00831b"/>
      <path id="Path_242" data-name="Path 242" d="M190.326,187.163a7.163,7.163,0,1,0-7.163,7.163A7.171,7.171,0,0,0,190.326,187.163Zm-7.163,5.372a5.372,5.372,0,1,1,5.372-5.372A5.378,5.378,0,0,1,183.163,192.535Zm0,0" transform="translate(-160.241 -163.883)" fill="#00831b"/>
      <path id="Path_243" data-name="Path 243" d="M189.932,5.208a.9.9,0,0,0-.723-.609l-3.862-.561L183.617.5a.9.9,0,0,0-1.609,0L180.28,4.038l-3.862.56a.9.9,0,0,0-.5,1.527l2.8,2.726-.66,3.849a.9.9,0,0,0,1.3.944l3.456-1.817,3.457,1.817a.9.9,0,0,0,1.3-.944l-.661-3.849,2.8-2.726A.9.9,0,0,0,189.932,5.208ZM185.321,7.9a.9.9,0,0,0-.257.793l.433,2.525-2.267-1.192a.9.9,0,0,0-.833,0l-2.266,1.192.433-2.525a.9.9,0,0,0-.258-.793L178.471,6.11,181,5.742a.894.894,0,0,0,.676-.493l1.133-2.315,1.132,2.315a.9.9,0,0,0,.676.493l2.534.368Zm0,0" transform="translate(-159.924)" fill="#00831b"/>
      <path id="Path_244" data-name="Path 244" d="M376.119,93.86a.9.9,0,0,0-.723-.609l-2.617-.38-1.17-2.371a.9.9,0,0,0-.8-.5h0a.9.9,0,0,0-.8.5l-1.171,2.371-2.617.38a.9.9,0,0,0-.5,1.527l1.893,1.846-.447,2.606a.9.9,0,0,0,1.3.944l2.341-1.23,2.341,1.23a.9.9,0,0,0,1.3-.944L374,96.624l1.894-1.846A.9.9,0,0,0,376.119,93.86Zm-3.707,1.811a.894.894,0,0,0-.257.792l.22,1.282-1.151-.6a.9.9,0,0,0-.833,0l-1.152.605.22-1.282a.9.9,0,0,0-.257-.792l-.932-.909,1.287-.187a.9.9,0,0,0,.674-.49l.576-1.166.575,1.166a.9.9,0,0,0,.674.49l1.287.187Zm0,0" transform="translate(-332.728 -81.942)" fill="#00831b"/>
      <path id="Path_245" data-name="Path 245" d="M36.119,93.86a.9.9,0,0,0-.723-.609l-2.617-.38L31.609,90.5A.9.9,0,0,0,30,90.5L28.833,92.87l-2.617.38a.9.9,0,0,0-.5,1.527l1.893,1.846-.447,2.606a.9.9,0,0,0,1.3.944l2.341-1.23,2.341,1.23a.9.9,0,0,0,1.3-.944L34,96.624l1.894-1.846A.9.9,0,0,0,36.119,93.86Zm-3.707,1.811a.9.9,0,0,0-.257.792l.22,1.282-1.151-.6a.894.894,0,0,0-.833,0l-1.152.605.22-1.282a.9.9,0,0,0-.257-.792l-.932-.909,1.288-.187a.9.9,0,0,0,.674-.49l.576-1.166.575,1.166a.9.9,0,0,0,.674.49l1.287.187Zm0,0" transform="translate(-23.171 -81.942)" fill="#00831b"/>
      <path id="Path_246" data-name="Path 246" d="M285.715,391.6a.9.9,0,0,0-.983,1.5,5.4,5.4,0,0,1,1.914,2.193.9.9,0,0,0,1.617-.769A7.191,7.191,0,0,0,285.715,391.6Zm0,0" transform="translate(-258.869 -356.399)" fill="#00831b"/>
    </g>
  </g>
</svg>
