<svg xmlns="http://www.w3.org/2000/svg" width="134.094" height="56" viewBox="0 0 134.094 56">
  <g id="Group_744" data-name="Group 744" transform="translate(-1026 -3762)">
    <text id="_10_" data-name="10+" transform="translate(1079.094 3807)" fill="#0d4e19" font-size="47" font-family="FuturaBT-Heavy, Futura" font-weight="800"><tspan x="0" y="0">10</tspan><tspan y="0" font-size="27.415" baseline-shift="15.665100055801178">+</tspan></text>
    <g id="Group_582" data-name="Group 582" transform="translate(1024 3766)">
      <path id="Path_232" data-name="Path 232" d="M44.47,9.2a.72.72,0,0,0,.72-.72V5.6A3.6,3.6,0,0,0,41.59,2H12.077a3.6,3.6,0,0,0-3.6,3.6V8.09A7.193,7.193,0,0,0,5.023,19.456l-2.872,3.7a.72.72,0,0,0-.079.756.728.728,0,0,0,.648.4H5.153L6.4,26.8a.711.711,0,0,0,.641.4h.014a.73.73,0,0,0,.641-.425l.785-1.72V37.991H4.159a.72.72,0,0,0-.72.72V41.59a3.6,3.6,0,0,0,3.6,3.6H35.832a3.6,3.6,0,0,0,3.6-3.6v-.72a.72.72,0,0,0,.72.72H44.47a.72.72,0,0,0,.72-.72V30.793a.72.72,0,0,0-.72-.72H40.151a.72.72,0,0,0-.72.72V9.2ZM39.431,5.6a2.159,2.159,0,0,1,4.319,0V7.759H39.431Zm1.44,25.914H43.75v8.638H40.87ZM9.918,5.6A2.166,2.166,0,0,1,12.077,3.44H38.733A3.544,3.544,0,0,0,37.991,5.6V30.5l-.77-.77L36.8,27.172a2.555,2.555,0,0,0-4.945-.389l-.3.9a.853.853,0,0,0-.036.23v1.44H26.474a2.166,2.166,0,0,0-2.159,2.159,2.141,2.141,0,0,0,.561,1.44,2.126,2.126,0,0,0,0,2.879,2.107,2.107,0,0,0-.432,2.159H9.918V22.119c.238.022.475.036.72.036a7.611,7.611,0,0,0,.821-.05l2.123,4.664a.73.73,0,0,0,.641.425h.014a.711.711,0,0,0,.641-.4l1.245-2.483h2.433a.728.728,0,0,0,.648-.4.72.72,0,0,0-.079-.756l-2.872-3.7a7.194,7.194,0,0,0-5.615-11.7c-.245,0-.482.014-.72.036ZM26.474,33.672h2.159a.72.72,0,1,1,0,1.44H26.474a.72.72,0,1,1,0-1.44Zm-.72-2.159a.72.72,0,0,1,.72-.72h2.159a.72.72,0,0,1,0,1.44H26.474A.72.72,0,0,1,25.754,31.513Zm.72,5.039h2.159a.72.72,0,0,1,0,1.44H26.474a.72.72,0,0,1,0-1.44Zm.72,2.879h2.159a.72.72,0,0,1,0,1.44H27.194a.72.72,0,1,1,0-1.44ZM12.9,21.788a7.27,7.27,0,0,0,2.332-1.3l1.857,2.383H15.677a.7.7,0,0,0-.641.4l-.77,1.533ZM7.01,24.8l-.77-1.533a.7.7,0,0,0-.641-.4H4.188l1.857-2.383a7.27,7.27,0,0,0,2.332,1.3ZM4.879,14.957a5.759,5.759,0,1,1,5.759,5.759A5.759,5.759,0,0,1,4.879,14.957ZM7.039,43.75A2.166,2.166,0,0,1,4.879,41.59V39.431H25.164a2.145,2.145,0,0,0,2.03,2.879H32.3a3.484,3.484,0,0,0,.669,1.44Zm28.793,0a2.167,2.167,0,0,1-2.03-1.44h3.47a.744.744,0,0,0,.511-.209l.173-.18a2.147,2.147,0,0,1-2.123,1.828Zm3.6-4.319h-.72a.744.744,0,0,0-.511.209l-1.224,1.231H31.383a2.129,2.129,0,0,0-.878-2.541,2.118,2.118,0,0,0,.288-1.058,2.141,2.141,0,0,0-.561-1.44,2.126,2.126,0,0,0,0-2.879,2.107,2.107,0,0,0,.432-2.159h.849v2.692a3.613,3.613,0,0,0,1.749,3.081l2.2,1.324.734-1.238L34,35.335a2.175,2.175,0,0,1-1.051-1.85V28.029l.266-.792a1.116,1.116,0,0,1,2.159.173l.461,2.779a.8.8,0,0,0,.2.4l1.44,1.44a.744.744,0,0,0,.511.209h1.44Z" transform="translate(0)" fill="#00831b"/>
      <path id="Path_233" data-name="Path 233" d="M12.319,22.638A4.319,4.319,0,1,0,8,18.319,4.319,4.319,0,0,0,12.319,22.638Zm0-7.2A2.879,2.879,0,1,1,9.44,18.319a2.879,2.879,0,0,1,2.879-2.879Z" transform="translate(-1.681 -3.362)" fill="#00831b"/>
      <path id="Path_234" data-name="Path 234" d="M28,13H43.116v1.44H28Z" transform="translate(-7.285 -3.082)" fill="#00831b"/>
      <path id="Path_235" data-name="Path 235" d="M28,18H43.116v1.44H28Z" transform="translate(-7.285 -4.483)" fill="#00831b"/>
      <path id="Path_236" data-name="Path 236" d="M28,23H43.116v1.44H28Z" transform="translate(-7.285 -5.884)" fill="#00831b"/>
      <path id="Path_237" data-name="Path 237" d="M28,28H43.116v1.44H28Z" transform="translate(-7.285 -7.285)" fill="#00831b"/>
    </g>
  </g>
</svg>
