<svg id="Group_601" data-name="Group 601" xmlns="http://www.w3.org/2000/svg" xmlns:xlink="http://www.w3.org/1999/xlink" width="184.549" height="158.188" viewBox="0 0 184.549 158.188">
  <defs>
    <clipPath id="clip-path">
      <rect id="Rectangle_70" data-name="Rectangle 70" width="184.549" height="158.188" fill="none"/>
    </clipPath>
  </defs>
  <g id="Group_508" data-name="Group 508" clip-path="url(#clip-path)">
    <path id="Path_166" data-name="Path 166" d="M61.363,0A61.363,61.363,0,0,0,0,61.362c0,.552.03,1.1.044,1.643H0v95.182H13.281V63h.008A54.3,54.3,0,0,1,121.8,60.283h.9A61.352,61.352,0,0,0,61.363,0" transform="translate(0 0)" fill="#506d6d"/>
    <path id="Path_167" data-name="Path 167" d="M48.514,170.943c-6.426,0-7-5.1-7-5.1V136.489H34.487v29.355c0,12.746,9.472,12.128,9.472,12.128H82.786v-7.029Z" transform="translate(-5.381 -21.298)" fill="#221f20"/>
    <path id="Path_168" data-name="Path 168" d="M127.356,140.119s-1.842-3.294-4.925-3.294c-3.668.034-6.555,6.306-6.555,6.306l-17.6,34.9h48.08Zm-6.271,6.273s1.172-3.057,2.68,0,12.479,24.747,12.479,24.747H108.4Z" transform="translate(-15.334 -21.35)" fill="#221f20"/>
    <path id="Path_169" data-name="Path 169" d="M209.821,163.34c-.09-2.572-2.482-4.827-4.377-5.73,4.557-1.218,4.376-6.722,4.376-6.722l-.046-5.955c-.18-8.3-10.535-8.108-10.535-8.108H162.212V143.4h37.027c3.947.453,4.084,4.509,4.084,4.509v2.12a4.416,4.416,0,0,1-4.084,4.108H162.212v6.576h37.027a4.487,4.487,0,0,1,4.039,4.655v2.165a4.648,4.648,0,0,1-4.039,3.917H162.212v6.576h37.027c11.167-.522,10.582-8.868,10.582-8.868s.089-3.248,0-5.82" transform="translate(-25.312 -21.35)" fill="#221f20"/>
    <path id="Path_170" data-name="Path 170" d="M66.8,101.341l-2.767.74v3.381h-2.2v2.208h2.2v7.64c0,1.849.328,3.053,1.029,3.781a3.685,3.685,0,0,0,2.881,1.128,6.458,6.458,0,0,0,2.338-.362l.079-.032-.132-2.172-.142.039a5.612,5.612,0,0,1-1.467.172c-1.276,0-1.82-.79-1.82-2.642V107.67h3.7v-2.208H66.8Z" transform="translate(-9.647 -15.813)"/>
    <path id="Path_171" data-name="Path 171" d="M82.53,104.673a5.438,5.438,0,0,0-2.7.75,5,5,0,0,0-1.733,1.6V98.355H75.269v21.1h2.825v-8.7a3.029,3.029,0,0,1,.17-1.2,3.587,3.587,0,0,1,3.354-2.5c2.76,0,3.172,2.577,3.172,4.113v8.289h2.824v-8.583c0-5.9-4.236-6.2-5.085-6.2" transform="translate(-11.745 -15.347)"/>
    <path id="Path_172" data-name="Path 172" d="M100.168,105.841c-4,0-6.79,3.2-6.79,7.79,0,4.429,2.793,7.29,7.114,7.29a11.6,11.6,0,0,0,4.781-.892l.09-.041-.5-2.085-.131.056a9.159,9.159,0,0,1-3.891.725c-2.89,0-4.66-1.753-4.756-4.7h9.976l.025-.223a9.024,9.024,0,0,0,.075-1.1,8.329,8.329,0,0,0-1.218-4.4,5.367,5.367,0,0,0-4.779-2.423m-4.037,6.054c.216-1.533,1.24-3.963,3.831-3.963a3.2,3.2,0,0,1,2.379.9,4.567,4.567,0,0,1,1.087,3.059Z" transform="translate(-14.571 -16.515)"/>
    <path id="Path_173" data-name="Path 173" d="M126.606,105.841a5.35,5.35,0,0,0-4.66,2.479l-.136-2.155h-2.533l.009.128c.083,1.1.118,2.247.118,3.841v10.494h2.825v-8.672a3.607,3.607,0,0,1,.172-1.171,3.538,3.538,0,0,1,3.352-2.56c2.622,0,3.172,2.22,3.172,4.083v8.319h2.825v-8.613c0-5.875-4.286-6.173-5.145-6.173" transform="translate(-18.612 -16.515)"/>
    <path id="Path_174" data-name="Path 174" d="M148.78,117.1V111.78c0-2.709-.959-5.938-5.527-5.938a8.9,8.9,0,0,0-4.737,1.282l-.078.051.668,1.938.128-.084a6.953,6.953,0,0,1,3.638-1.039c2.065,0,3.113,1.068,3.113,3.172v.174h-.005c-3.345,0-5.844.731-7.234,2.112a4.477,4.477,0,0,0-1.312,3.3,4.152,4.152,0,0,0,4.469,4.2,5.438,5.438,0,0,0,4.341-2.024l.2,1.7h2.6l-.025-.141a19.49,19.49,0,0,1-.233-3.388m-6.2,1.7a2.169,2.169,0,0,1-2.319-2.35,2.462,2.462,0,0,1,.727-1.831c.852-.835,2.453-1.257,4.762-1.257l.3,0v2.35a2.562,2.562,0,0,1-.14.783,3.432,3.432,0,0,1-3.325,2.3" transform="translate(-21.445 -16.516)"/>
    <path id="Path_175" data-name="Path 175" d="M156.9,99.574a1.7,1.7,0,0,0-1.736,1.736,1.655,1.655,0,0,0,1.677,1.706,1.809,1.809,0,0,0,1.322-.517,1.61,1.61,0,0,0,.442-1.19,1.647,1.647,0,0,0-1.706-1.736" transform="translate(-24.211 -15.537)"/>
    <path id="Path_176" data-name="Path 176" d="M153.579,109.074h1.657v11.613h2.826V106.224h-4.482Z" transform="translate(-23.964 -16.575)"/>
    <path id="Path_177" data-name="Path 177" d="M168.582,117.335h-.033a2.016,2.016,0,0,1-1.5-.525,2.278,2.278,0,0,1-.535-1.723V99.8H163.69v15.774a4.067,4.067,0,0,0,1.578,3.4,5.038,5.038,0,0,0,2.685.715l.1,0h.646v-2.351Z" transform="translate(-25.542 -15.572)"/>
  </g>
</svg>
